<svg width="174" height="38" viewBox="0 0 174 38" fill="none" xmlns="http://www.w3.org/2000/svg">
<g id="figma-out-0097">
<g id="Linked master / maticon-office-lockup-developers-en--color-on-light" clip-path="url(#clip0_42_34563)">
<g id="Maticon/Lockup/Product/Canonical">
<g id="Logo theme / linked Color">
<g id="Native geometry master / linked instance">
<g id="tile/document - 896px">
<path id="document tile / folded silhouette" d="M9.22031 5.2251H15.8703L20.0266 9.38135V16.0313C20.0266 17.4086 18.9101 18.5251 17.5328 18.5251H9.22031C7.84305 18.5251 6.72656 17.4086 6.72656 16.0313V7.71885C6.72656 6.34159 7.84305 5.2251 9.22031 5.2251Z" fill="url(#paint0_linear_42_34563)"/>
<path id="document folded corner / vector" d="M15.8672 5.2251L20.0234 9.38135H17.4109C16.4906 9.38135 15.8672 8.75791 15.8672 7.8376V5.2251Z" fill="url(#paint1_linear_42_34563)"/>
<g id="glyph/document / centered 480px">
<rect id="document line 1 / centered" x="10.4062" y="9.76709" width="5.9375" height="0.83125" rx="0.415625" fill="#FFFEFC"/>
<rect id="document line 2 / centered" x="11" y="11.4595" width="4.75" height="0.83125" rx="0.415625" fill="#FFFEFC"/>
<rect id="document line 3 / centered" x="11.5938" y="13.1516" width="3.5625" height="0.83125" rx="0.415625" fill="#FFFEFC"/>
</g>
</g>
<g id="tile/analytics - 896px">
<rect id="analytics tile / gradient body" x="20.9766" y="5.2251" width="13.3" height="13.3" rx="2.49375" fill="url(#paint2_linear_42_34563)"/>
<g id="glyph/analytics / centered 480px">
<rect id="bar 1 / common baseline" x="24.2422" y="12.0532" width="1.6625" height="3.20625" rx="0.534375" fill="#FFFEFC"/>
<rect id="bar 2 / common baseline" x="26.793" y="10.272" width="1.6625" height="4.9875" rx="0.534375" fill="#FFFEFC"/>
<rect id="bar 3 / common baseline" x="29.3477" y="8.49072" width="1.6625" height="6.76875" rx="0.534375" fill="#FFFEFC"/>
</g>
</g>
<g id="tile/grid - 896px">
<rect id="grid tile / gradient body" x="6.72656" y="19.4751" width="13.3" height="13.3" rx="2.49375" fill="url(#paint3_linear_42_34563)"/>
<g id="glyph/grid / centered 480px">
<rect id="grid cell top left" x="10.1406" y="22.8892" width="2.67188" height="2.67188" rx="0.59375" fill="#FFFEFC"/>
<rect id="grid cell top right" x="13.9375" y="22.8892" width="2.67188" height="2.67188" rx="0.59375" fill="#FFFEFC"/>
<rect id="grid cell bottom left" x="10.1406" y="26.689" width="2.67188" height="2.67188" rx="0.59375" fill="#FFFEFC"/>
<rect id="grid cell bottom right" x="13.9375" y="26.689" width="2.67188" height="2.67188" rx="0.59375" fill="#FFFEFC"/>
</g>
</g>
<g id="tile/pie - 896px">
<rect id="pie tile / gradient body" x="20.9766" y="19.4751" width="13.3" height="13.3" rx="2.49375" fill="url(#paint4_linear_42_34563)"/>
<g id="glyph/pie / centered 480px">
<path id="pie body / exact radius and rounded inner corner" d="M27.4633 23.1414C25.7253 23.1414 24.3164 24.5503 24.3164 26.2882C24.3164 28.0262 25.7253 29.4351 27.4633 29.4351C29.2012 29.4351 30.6102 28.0262 30.6102 26.2882H27.8789C27.6494 26.2882 27.4633 26.1022 27.4633 25.8726V23.1414Z" fill="#FFFEFC"/>
<path id="pie slice / congruent exploded quarter" d="M28.1133 22.4883C29.8512 22.4883 31.2602 23.8972 31.2602 25.6352H28.5289C28.2994 25.6352 28.1133 25.4491 28.1133 25.2195V22.4883Z" fill="#FFFEFC"/>
</g>
</g>
</g>
</g>
<g id="Wordmark and descriptor / linked">
<g id="Wordmark theme / linked EN / Two-tone Dark">
<g id="Wordmark master / linked EN">
<g id="EDIT BRAND NAME / EN / MATICONOFFICE">
<path d="M43.4419 8.64541H45.8925L49.1743 16.6556H49.3038L52.5857 8.64541H55.0362V19.7H53.1146V12.1053H53.0121L49.957 19.6676H48.5212L45.4661 12.0892H45.3635V19.7H43.4419V8.64541ZM58.6365 19.7H56.499L60.3908 8.64541H62.8629L66.7601 19.7H64.6226L61.67 10.9125H61.5837L58.6365 19.7ZM58.7067 15.3656H64.5362V16.9741H58.7067V15.3656ZM66.3944 10.3241V8.64541H75.2143V10.3241H71.7975V19.7H69.8112V10.3241H66.3944ZM78.9171 8.64541V19.7H76.9146V8.64541H78.9171ZM90.5479 12.3752H88.5291C88.4715 12.0442 88.3654 11.7509 88.2107 11.4954C88.0559 11.2363 87.8634 11.0168 87.6331 10.8369C87.4028 10.657 87.1401 10.522 86.845 10.4321C86.5536 10.3385 86.2387 10.2917 85.9004 10.2917C85.2995 10.2917 84.7669 10.4428 84.3027 10.7451C83.8385 11.0438 83.475 11.4828 83.2124 12.0622C82.9497 12.6379 82.8183 13.3414 82.8183 14.1727C82.8183 15.0183 82.9497 15.7308 83.2124 16.3102C83.4786 16.8859 83.8421 17.3214 84.3027 17.6164C84.7669 17.9079 85.2977 18.0536 85.895 18.0536C86.2261 18.0536 86.5356 18.0105 86.8234 17.9241C87.1149 17.8341 87.3758 17.7028 87.6061 17.5301C87.84 17.3573 88.0361 17.145 88.1945 16.8931C88.3564 16.6412 88.4679 16.3534 88.5291 16.0295L90.5479 16.0403C90.4723 16.5657 90.3086 17.0587 90.0567 17.5193C89.8084 17.9799 89.4827 18.3865 89.0797 18.7392C88.6767 19.0882 88.2053 19.3617 87.6655 19.5596C87.1257 19.7539 86.5266 19.8511 85.868 19.8511C84.8964 19.8511 84.0292 19.6262 83.2663 19.1764C82.5035 18.7266 81.9025 18.077 81.4635 17.2278C81.0245 16.3785 80.805 15.3602 80.805 14.1727C80.805 12.9816 81.0263 11.9632 81.4689 11.1176C81.9115 10.2683 82.5143 9.6188 83.2771 9.16898C84.04 8.71917 84.9036 8.49427 85.868 8.49427C86.4834 8.49427 87.0555 8.58063 87.5845 8.75336C88.1135 8.92609 88.5849 9.17978 88.9987 9.51444C89.4125 9.8455 89.7526 10.2521 90.0189 10.7343C90.2888 11.2129 90.4651 11.7599 90.5479 12.3752ZM102.26 14.1727C102.26 15.3638 102.036 16.3839 101.59 17.2332C101.148 18.0788 100.543 18.7266 99.7766 19.1764C99.0138 19.6262 98.1483 19.8511 97.1803 19.8511C96.2123 19.8511 95.3451 19.6262 94.5786 19.1764C93.8157 18.723 93.2112 18.0734 92.765 17.2278C92.3224 16.3785 92.1011 15.3602 92.1011 14.1727C92.1011 12.9816 92.3224 11.9632 92.765 11.1176C93.2112 10.2683 93.8157 9.6188 94.5786 9.16898C95.3451 8.71917 96.2123 8.49427 97.1803 8.49427C98.1483 8.49427 99.0138 8.71917 99.7766 9.16898C100.543 9.6188 101.148 10.2683 101.59 11.1176C102.036 11.9632 102.26 12.9816 102.26 14.1727ZM100.246 14.1727C100.246 13.3342 100.115 12.6271 99.8522 12.0514C99.5931 11.472 99.2333 11.0348 98.7727 10.7397C98.312 10.441 97.7813 10.2917 97.1803 10.2917C96.5794 10.2917 96.0486 10.441 95.588 10.7397C95.1274 11.0348 94.7657 11.472 94.5031 12.0514C94.244 12.6271 94.1144 13.3342 94.1144 14.1727C94.1144 15.0111 94.244 15.72 94.5031 16.2994C94.7657 16.8751 95.1274 17.3124 95.588 17.611C96.0486 17.9061 96.5794 18.0536 97.1803 18.0536C97.7813 18.0536 98.312 17.9061 98.7727 17.611C99.2333 17.3124 99.5931 16.8751 99.8522 16.2994C100.115 15.72 100.246 15.0111 100.246 14.1727ZM113.237 8.64541V19.7H111.456L106.247 12.1701H106.155V19.7H104.153V8.64541H105.945L111.148 16.1806H111.245V8.64541H113.237Z" fill="#5B5B5B"/>
<path d="M125.297 14.1727C125.297 15.3638 125.074 16.3839 124.628 17.2332C124.185 18.0788 123.581 18.7266 122.814 19.1764C122.051 19.6262 121.186 19.8511 120.218 19.8511C119.25 19.8511 118.383 19.6262 117.616 19.1764C116.853 18.723 116.249 18.0734 115.802 17.2278C115.36 16.3785 115.139 15.3602 115.139 14.1727C115.139 12.9816 115.36 11.9632 115.802 11.1176C116.249 10.2683 116.853 9.6188 117.616 9.16898C118.383 8.71917 119.25 8.49427 120.218 8.49427C121.186 8.49427 122.051 8.71917 122.814 9.16898C123.581 9.6188 124.185 10.2683 124.628 11.1176C125.074 11.9632 125.297 12.9816 125.297 14.1727ZM123.284 14.1727C123.284 13.3342 123.152 12.6271 122.89 12.0514C122.631 11.472 122.271 11.0348 121.81 10.7397C121.35 10.441 120.819 10.2917 120.218 10.2917C119.617 10.2917 119.086 10.441 118.625 10.7397C118.165 11.0348 117.803 11.472 117.541 12.0514C117.281 12.6271 117.152 13.3342 117.152 14.1727C117.152 15.0111 117.281 15.72 117.541 16.2994C117.803 16.8751 118.165 17.3124 118.625 17.611C119.086 17.9061 119.617 18.0536 120.218 18.0536C120.819 18.0536 121.35 17.9061 121.81 17.611C122.271 17.3124 122.631 16.8751 122.89 16.2994C123.152 15.72 123.284 15.0111 123.284 14.1727ZM127.19 19.7V8.64541H134.272V10.3241H129.193V13.3252H133.786V15.0039H129.193V19.7H127.19ZM136.097 19.7V8.64541H143.178V10.3241H138.099V13.3252H142.693V15.0039H138.099V19.7H136.097ZM147.005 8.64541V19.7H145.003V8.64541H147.005ZM158.636 12.3752H156.617C156.56 12.0442 156.454 11.7509 156.299 11.4954C156.144 11.2363 155.952 11.0168 155.721 10.8369C155.491 10.657 155.228 10.522 154.933 10.4321C154.642 10.3385 154.327 10.2917 153.989 10.2917C153.388 10.2917 152.855 10.4428 152.391 10.7451C151.927 11.0438 151.563 11.4828 151.301 12.0622C151.038 12.6379 150.907 13.3414 150.907 14.1727C150.907 15.0183 151.038 15.7308 151.301 16.3102C151.567 16.8859 151.93 17.3214 152.391 17.6164C152.855 17.9079 153.386 18.0536 153.983 18.0536C154.314 18.0536 154.624 18.0105 154.912 17.9241C155.203 17.8341 155.464 17.7028 155.694 17.5301C155.928 17.3573 156.124 17.145 156.283 16.8931C156.445 16.6412 156.556 16.3534 156.617 16.0295L158.636 16.0403C158.561 16.5657 158.397 17.0587 158.145 17.5193C157.897 17.9799 157.571 18.3865 157.168 18.7392C156.765 19.0882 156.294 19.3617 155.754 19.5596C155.214 19.7539 154.615 19.8511 153.956 19.8511C152.985 19.8511 152.117 19.6262 151.355 19.1764C150.592 18.7266 149.991 18.077 149.552 17.2278C149.113 16.3785 148.893 15.3602 148.893 14.1727C148.893 12.9816 149.115 11.9632 149.557 11.1176C150 10.2683 150.603 9.6188 151.365 9.16898C152.128 8.71917 152.992 8.49427 153.956 8.49427C154.572 8.49427 155.144 8.58063 155.673 8.75336C156.202 8.92609 156.673 9.17978 157.087 9.51444C157.501 9.8455 157.841 10.2521 158.107 10.7343C158.377 11.2129 158.553 11.7599 158.636 12.3752ZM160.47 19.7V8.64541H167.66V10.3241H162.473V13.3252H167.287V15.0039H162.473V18.0213H167.703V19.7H160.47Z" fill="#3A3A3A"/>
</g>
</g>
</g>
<g id="Product descriptor / linked developers / EN">
<path id="EDIT PRODUCT NAME / developers / EN" d="M83.1252 26.7124H81.2522V21.1851H83.163C83.7118 21.1851 84.1832 21.2958 84.5772 21.5171C84.973 21.7366 85.2771 22.0524 85.4894 22.4644C85.7017 22.8764 85.8079 23.3694 85.8079 23.9434C85.8079 24.5191 85.7008 25.0139 85.4867 25.4277C85.2744 25.8416 84.9676 26.1591 84.5664 26.3804C84.167 26.6017 83.6866 26.7124 83.1252 26.7124ZM82.2535 25.8461H83.0766C83.4617 25.8461 83.7828 25.7759 84.0401 25.6356C84.2974 25.4934 84.4908 25.282 84.6204 25.0013C84.7499 24.7188 84.8147 24.3662 84.8147 23.9434C84.8147 23.5205 84.7499 23.1697 84.6204 22.8908C84.4908 22.6101 84.2992 22.4005 84.0455 22.262C83.7936 22.1216 83.4806 22.0515 83.1063 22.0515H82.2535V25.8461ZM86.7592 26.7124V21.1851H90.3541V22.0245H87.7605V23.525H90.1679V24.3644H87.7605V25.8731H90.3757V26.7124H86.7592ZM92.1151 21.1851L93.5536 25.5357H93.6103L95.0461 21.1851H96.1472L94.1987 26.7124H92.9626L91.0167 21.1851H92.1151ZM96.8752 26.7124V21.1851H100.47V22.0245H97.8765V23.525H100.284V24.3644H97.8765V25.8731H100.492V26.7124H96.8752ZM101.492 26.7124V21.1851H102.493V25.8731H104.927V26.7124H101.492ZM110.52 23.9488C110.52 24.5443 110.408 25.0544 110.185 25.479C109.964 25.9018 109.662 26.2257 109.279 26.4506C108.897 26.6755 108.464 26.788 107.98 26.788C107.496 26.788 107.063 26.6755 106.68 26.4506C106.298 26.2239 105.996 25.8991 105.773 25.4763C105.551 25.0517 105.441 24.5425 105.441 23.9488C105.441 23.3532 105.551 22.844 105.773 22.4212C105.996 21.9966 106.298 21.6718 106.68 21.4469C107.063 21.222 107.496 21.1096 107.98 21.1096C108.464 21.1096 108.897 21.222 109.279 21.4469C109.662 21.6718 109.964 21.9966 110.185 22.4212C110.408 22.844 110.52 23.3532 110.52 23.9488ZM109.513 23.9488C109.513 23.5295 109.448 23.176 109.316 22.8881C109.187 22.5984 109.007 22.3798 108.777 22.2323C108.546 22.083 108.281 22.0083 107.98 22.0083C107.68 22.0083 107.415 22.083 107.184 22.2323C106.954 22.3798 106.773 22.5984 106.642 22.8881C106.512 23.176 106.447 23.5295 106.447 23.9488C106.447 24.368 106.512 24.7224 106.642 25.0121C106.773 25.3 106.954 25.5186 107.184 25.6679C107.415 25.8155 107.68 25.8892 107.98 25.8892C108.281 25.8892 108.546 25.8155 108.777 25.6679C109.007 25.5186 109.187 25.3 109.316 25.0121C109.448 24.7224 109.513 24.368 109.513 23.9488ZM111.467 26.7124V21.1851H113.539C113.964 21.1851 114.32 21.2643 114.608 21.4226C114.898 21.581 115.116 21.7987 115.264 22.0758C115.413 22.351 115.488 22.6641 115.488 23.015C115.488 23.3694 115.413 23.6843 115.264 23.9596C115.115 24.2348 114.894 24.4517 114.603 24.61C114.311 24.7665 113.952 24.8448 113.526 24.8448H112.152V24.0216H113.391C113.639 24.0216 113.843 23.9785 114.001 23.8921C114.159 23.8057 114.276 23.687 114.352 23.5358C114.429 23.3847 114.468 23.2111 114.468 23.015C114.468 22.8188 114.429 22.6461 114.352 22.4968C114.276 22.3474 114.158 22.2314 113.998 22.1486C113.84 22.0641 113.636 22.0218 113.386 22.0218H112.468V26.7124H111.467ZM116.358 26.7124V21.1851H119.953V22.0245H117.359V23.525H119.766V24.3644H117.359V25.8731H119.974V26.7124H116.358ZM120.974 26.7124V21.1851H123.047C123.471 21.1851 123.828 21.2589 124.116 21.4064C124.405 21.554 124.624 21.7609 124.771 22.0272C124.921 22.2917 124.995 22.6002 124.995 22.9529C124.995 23.3073 124.92 23.615 124.769 23.8759C124.619 24.135 124.399 24.3356 124.107 24.4777C123.816 24.6181 123.458 24.6883 123.033 24.6883H121.557V23.857H122.898C123.147 23.857 123.35 23.8228 123.508 23.7544C123.667 23.6843 123.784 23.5826 123.859 23.4495C123.937 23.3145 123.975 23.149 123.975 22.9529C123.975 22.7568 123.937 22.5894 123.859 22.4509C123.782 22.3106 123.664 22.2044 123.506 22.1324C123.347 22.0587 123.143 22.0218 122.893 22.0218H121.975V26.7124H120.974ZM123.829 24.2079L125.198 26.7124H124.08L122.736 24.2079H123.829ZM128.921 22.7046C128.896 22.4689 128.79 22.2854 128.602 22.154C128.417 22.0227 128.176 21.957 127.879 21.957C127.67 21.957 127.491 21.9885 127.342 22.0515C127.193 22.1144 127.078 22.1999 126.999 22.3079C126.92 22.4158 126.88 22.5391 126.878 22.6776C126.878 22.7928 126.904 22.8926 126.956 22.9772C127.01 23.0617 127.083 23.1337 127.175 23.1931C127.266 23.2507 127.368 23.2992 127.48 23.3388C127.591 23.3784 127.704 23.4117 127.817 23.4387L128.335 23.5682C128.544 23.6168 128.745 23.6825 128.937 23.7652C129.131 23.848 129.305 23.9524 129.458 24.0783C129.613 24.2043 129.735 24.3563 129.825 24.5344C129.915 24.7125 129.96 24.9213 129.96 25.1606C129.96 25.4844 129.877 25.7696 129.712 26.0161C129.546 26.2608 129.307 26.4524 128.994 26.591C128.682 26.7277 128.306 26.7961 127.863 26.7961C127.433 26.7961 127.06 26.7295 126.743 26.5964C126.428 26.4632 126.182 26.2689 126.003 26.0134C125.827 25.7579 125.732 25.4466 125.717 25.0796H126.702C126.717 25.2721 126.776 25.4322 126.881 25.56C126.985 25.6877 127.121 25.7831 127.288 25.8461C127.457 25.909 127.646 25.9405 127.855 25.9405C128.073 25.9405 128.263 25.9081 128.427 25.8434C128.593 25.7768 128.722 25.685 128.816 25.5681C128.909 25.4493 128.957 25.3108 128.959 25.1525C128.957 25.0085 128.915 24.8898 128.832 24.7962C128.749 24.7008 128.633 24.6217 128.484 24.5587C128.336 24.4939 128.163 24.4364 127.965 24.386L127.337 24.2241C126.881 24.1071 126.522 23.9299 126.257 23.6924C125.994 23.4531 125.863 23.1355 125.863 22.7397C125.863 22.414 125.951 22.1288 126.128 21.8841C126.306 21.6394 126.548 21.4496 126.854 21.3147C127.159 21.1779 127.506 21.1096 127.893 21.1096C128.285 21.1096 128.629 21.1779 128.924 21.3147C129.22 21.4496 129.453 21.6376 129.623 21.8787C129.792 22.118 129.879 22.3933 129.884 22.7046H128.921Z" fill="#4B515A"/>
</g>
</g>
</g>
</g>
</g>
<defs>
<linearGradient id="paint0_linear_42_34563" x1="7.97113" y1="8.05174" x2="18.782" y2="15.6985" gradientUnits="userSpaceOnUse">
<stop stop-color="#22D5E9"/>
<stop offset="0.48" stop-color="#168EF0"/>
<stop offset="1" stop-color="#0B4FE3"/>
</linearGradient>
<linearGradient id="paint1_linear_42_34563" x1="15.799" y1="6.88061" x2="19.709" y2="8.29487" gradientUnits="userSpaceOnUse">
<stop stop-color="#C7FBFF"/>
<stop offset="0.58" stop-color="#72E4F2"/>
<stop offset="1" stop-color="#198FE8"/>
</linearGradient>
<linearGradient id="paint2_linear_42_34563" x1="22.2211" y1="8.05174" x2="33.032" y2="15.6985" gradientUnits="userSpaceOnUse">
<stop stop-color="#FFD84A"/>
<stop offset="0.5" stop-color="#FF9E17"/>
<stop offset="1" stop-color="#FF4A2D"/>
</linearGradient>
<linearGradient id="paint3_linear_42_34563" x1="7.97113" y1="22.3017" x2="18.782" y2="29.9485" gradientUnits="userSpaceOnUse">
<stop stop-color="#A5EE27"/>
<stop offset="0.5" stop-color="#38D369"/>
<stop offset="1" stop-color="#06A98D"/>
</linearGradient>
<linearGradient id="paint4_linear_42_34563" x1="22.2211" y1="22.3017" x2="33.032" y2="29.9485" gradientUnits="userSpaceOnUse">
<stop stop-color="#C33FF0"/>
<stop offset="0.48" stop-color="#6E50F4"/>
<stop offset="1" stop-color="#1458EA"/>
</linearGradient>
<clipPath id="clip0_42_34563">
<rect width="171" height="38" fill="white" transform="translate(1.5)"/>
</clipPath>
</defs>
</svg>
